<?xml version="1.0" encoding="utf-8"?>
<!-- Generator: Adobe Illustrator 24.2.3, SVG Export Plug-In . SVG Version: 6.00 Build 0)  -->
<!DOCTYPE svg PUBLIC "-//W3C//DTD SVG 1.1//EN" "http://www.w3.org/Graphics/SVG/1.1/DTD/svg11.dtd" [
	<!ENTITY ns_extend "http://ns.adobe.com/Extensibility/1.0/">
	<!ENTITY ns_ai "http://ns.adobe.com/AdobeIllustrator/10.0/">
	<!ENTITY ns_graphs "http://ns.adobe.com/Graphs/1.0/">
	<!ENTITY ns_vars "http://ns.adobe.com/Variables/1.0/">
	<!ENTITY ns_imrep "http://ns.adobe.com/ImageReplacement/1.0/">
	<!ENTITY ns_sfw "http://ns.adobe.com/SaveForWeb/1.0/">
	<!ENTITY ns_custom "http://ns.adobe.com/GenericCustomNamespace/1.0/">
	<!ENTITY ns_adobe_xpath "http://ns.adobe.com/XPath/1.0/">
]>
<svg version="1.1" id="Layer_1" xmlns:x="&ns_extend;" xmlns:i="&ns_ai;" xmlns:graph="&ns_graphs;"
	 xmlns="http://www.w3.org/2000/svg" xmlns:xlink="http://www.w3.org/1999/xlink" x="0px" y="0px" viewBox="0 0 100 100"
	 style="enable-background:new 0 0 100 100;" xml:space="preserve">
<style type="text/css">
	.st0{fill:#FFFFFF;}
</style>
<metadata>
	<sfw  xmlns="&ns_sfw;">
		<slices></slices>
		<sliceSourceBounds  bottomLeftOrigin="true" height="60.3" width="99.4" x="0.3" y="19.9"></sliceSourceBounds>
	</sfw>
</metadata>
<path class="st0" d="M96.9,78.2c-3.5,2.2-17.5,2.9-20.9,0.4c-1.9-1.4-3.5-3.1-5.3-4.9c-1.1-1.1-2.5-1.8-3.3-3.1
	c-0.9-1.1-1.4-2.2-2.1-3.3c-1.4-1.6-3.5-3.3-5.3-1.1c-2.6,3.1,0.4,9.4-3,11.8c-1.2,0.7-2.3,1.1-3.9,0.9l-3.3,0.2c-1.9,0-4.9,0-7-0.4
	c-2.5-0.4-4.4-1.8-6.5-2.7c-4-1.8-8.1-4.5-11-8C17.3,58.5,6.4,45.1,2.2,33c-0.9-2.5-3.2-7.4-1.1-9.6c3-2.2,17.5-2.9,19.8,0.5
	c0.9,1.4,1.6,3.4,2.1,5.1c0.9,2,1.2,3.8,2.5,5.6c1.1,1.6,1.9,3.1,2.8,4.7c1.1,2,1.9,3.8,3.2,5.4c0.9,1.3,3,3.6,4.2,3.8
	c3.3,0.4,3.2-7.8,2.8-9.8c-0.2-2-0.4-4-0.2-6c0-1.6,0.2-4-0.7-5.4c-1.6-2.2-5.1-0.5-5.3-3.6c0.5-0.9,0.5-1.6,4.4-2.9
	c3-1.1,4.9-0.9,7-0.9c4,0.4,8.4-0.7,12.3,0.5c3.7,1.3,3.2,6.9,3,10.1c-0.2,4.5,0,8.9,0,13.4c0,2,0,4.2,2.5,4
	c2.3-0.2,2.5-2.2,3.7-3.8c1.6-2.4,3-4.7,4.6-6.9c2.1-3.1,2.8-6.5,4.7-9.8c0.7-1.1,1.4-3.6,2.5-4.5c0.9-0.7,2.5-0.4,3.3-0.4h2.5
	c1.8,0,3.7,0,5.6,0c2.6,0.2,5.6-0.5,8.4-0.2c11.6,1.6-14.4,26.9-13.1,31.5c0.9,3.1,6.8,6.7,8.9,9.2C95,67,103.7,73.8,96.9,78.2z"/>
</svg>
