<?xml version="1.0" encoding="utf-8"?>
<!-- Generator: Adobe Illustrator 24.2.3, SVG Export Plug-In . SVG Version: 6.00 Build 0)  -->
<!DOCTYPE svg PUBLIC "-//W3C//DTD SVG 1.1//EN" "http://www.w3.org/Graphics/SVG/1.1/DTD/svg11.dtd" [
	<!ENTITY ns_extend "http://ns.adobe.com/Extensibility/1.0/">
	<!ENTITY ns_ai "http://ns.adobe.com/AdobeIllustrator/10.0/">
	<!ENTITY ns_graphs "http://ns.adobe.com/Graphs/1.0/">
	<!ENTITY ns_vars "http://ns.adobe.com/Variables/1.0/">
	<!ENTITY ns_imrep "http://ns.adobe.com/ImageReplacement/1.0/">
	<!ENTITY ns_sfw "http://ns.adobe.com/SaveForWeb/1.0/">
	<!ENTITY ns_custom "http://ns.adobe.com/GenericCustomNamespace/1.0/">
	<!ENTITY ns_adobe_xpath "http://ns.adobe.com/XPath/1.0/">
]>
<svg version="1.1" id="Слой_1" xmlns:x="&ns_extend;" xmlns:i="&ns_ai;" xmlns:graph="&ns_graphs;"
	 xmlns="http://www.w3.org/2000/svg" xmlns:xlink="http://www.w3.org/1999/xlink" x="0px" y="0px" viewBox="0 0 18 18"
	 style="enable-background:new 0 0 18 18;" xml:space="preserve">
<style type="text/css">
	.st0{fill:#FFFFFF;}
</style>
<metadata>
	<sfw  xmlns="&ns_sfw;">
		<slices></slices>
		<sliceSourceBounds  bottomLeftOrigin="true" height="18" width="18" x="3" y="3"></sliceSourceBounds>
	</sfw>
</metadata>
<path class="st0" d="M13,16v-2c0-0.6,0.4-1,1-1s1,0.4,1,1v3c0,0.6-0.4,1-1,1H1c-0.6,0-1-0.4-1-1V4c0-0.6,0.4-1,1-1h3
	c0.6,0,1,0.4,1,1S4.6,5,4,5H2v11H13z M18,9c0,0.6-0.4,1-1,1s-1-0.4-1-1V5.5c0-0.6,0.4-1,1-1s1,0.4,1,1V9z M14.6,2H9C8.4,2,8,1.6,8,1
	s0.4-1,1-1h8c0.9,0,1.3,1.1,0.7,1.7l-9,9c-0.4,0.4-1,0.4-1.4,0c-0.4-0.4-0.4-1,0-1.4L14.6,2z"/>
</svg>
